<?xml version="1.0" encoding="utf-8"?>
<!-- Generator: Adobe Illustrator 16.0.2, SVG Export Plug-In . SVG Version: 6.00 Build 0)  -->
<!DOCTYPE svg PUBLIC "-//W3C//DTD SVG 1.1//EN" "http://www.w3.org/Graphics/SVG/1.1/DTD/svg11.dtd">
<svg version="1.1" id="Warstwa_1" xmlns="http://www.w3.org/2000/svg" xmlns:xlink="http://www.w3.org/1999/xlink" x="0px" y="0px"
	 width="707.1px" height="200px" viewBox="0 0 707.1 200" enable-background="new 0 0 707.1 200" xml:space="preserve">
<polygon fill="#61DAFB" points="0,150 0,50 86.6,0 173.2,50 173.2,150 86.6,200 "/>
<polygon fill="#FFFFFF" points="86.6,133.3 57.7,116.7 57.7,83.3 86.6,66.7 115.5,83.3 144.3,66.7 86.6,33.3 28.9,66.7 28.9,133.3 
	86.6,166.7 144.3,133.3 115.5,116.7 "/>
<polygon opacity="0.04" stroke="#FFFFFF" stroke-miterlimit="10" enable-background="new    " points="0,50 86.6,100 86.6,0 "/>
<polygon opacity="0.04" stroke="#FFFFFF" stroke-miterlimit="10" enable-background="new    " points="0,150 86.6,200 86.6,100 "/>
<polygon opacity="0.08" stroke="#FFFFFF" stroke-miterlimit="10" enable-background="new    " points="86.6,100 173.2,150 173.2,50 
	"/>
<polygon fill-opacity="0" points="86.6,100 0,50 0,150 "/>
<polygon opacity="0.08" stroke="#FFFFFF" stroke-miterlimit="10" enable-background="new    " points="173.2,150 86.6,100 86.6,200 
	"/>
<polygon opacity="0.08" stroke="#FFFFFF" stroke-miterlimit="10" enable-background="new    " points="173.2,50 86.6,0 86.6,100 "/>
<g display="none">
	<path display="inline" fill="none" d="M290.4,127.3c1,0,1.8,0.4,2.6,1.101l7.2,7.8c-4,4.899-8.8,8.7-14.6,11.3
		c-5.8,2.6-12.7,3.9-20.8,3.9c-7.2,0-13.8-1.2-19.5-3.7c-5.8-2.5-10.7-5.9-14.8-10.3c-4.1-4.4-7.2-9.7-9.4-15.801
		c-2.2-6.1-3.3-12.8-3.3-20c0-7.3,1.2-14.1,3.6-20.1c2.4-6.1,5.8-11.4,10.3-15.8c4.4-4.4,9.7-7.8,15.8-10.3s12.9-3.7,20.4-3.7
		c7.2,0,13.6,1.2,19,3.5c5.4,2.3,10.1,5.4,13.9,9.2l-6.1,8.4c-0.4,0.5-0.8,1-1.4,1.4c-0.6,0.4-1.3,0.6-2.3,0.6s-2.1-0.4-3.2-1.2
		c-1.1-0.8-2.5-1.7-4.1-2.6c-1.7-0.9-3.8-1.8-6.3-2.6c-2.5-0.8-5.8-1.2-9.7-1.2c-4.6,0-8.8,0.8-12.7,2.4c-3.8,1.6-7.2,3.9-9.9,6.9
		c-2.7,3-4.9,6.6-6.5,10.8c-1.6,4.3-2.3,9-2.3,14.3c0,5.5,0.8,10.4,2.3,14.601c1.6,4.3,3.7,7.899,6.3,10.8c2.7,2.9,5.8,5.2,9.4,6.7
		c3.6,1.6,7.5,2.3,11.6,2.3c2.5,0,4.7-0.1,6.7-0.4c2-0.3,3.8-0.699,5.5-1.3c1.7-0.6,3.3-1.3,4.8-2.3c1.5-0.9,3-2.1,4.5-3.4
		c0.4-0.399,0.9-0.699,1.4-1C289.3,127.4,289.9,127.3,290.4,127.3z"/>
	<path display="inline" fill="#333333" d="M407.5,101.5c0,7.2-1.2,13.8-3.6,19.9c-2.4,6.1-5.7,11.399-10.101,15.8
		c-4.3,4.5-9.5,7.899-15.6,10.399c-6.101,2.5-12.8,3.7-20.2,3.7s-14.1-1.2-20.2-3.7c-6.1-2.5-11.3-6-15.7-10.399
		c-4.3-4.5-7.699-9.7-10.1-15.8c-2.4-6.101-3.6-12.7-3.6-19.9s1.199-13.8,3.6-19.9s5.7-11.4,10.1-15.8
		c4.301-4.5,9.601-7.9,15.7-10.4c6.101-2.5,12.8-3.7,20.2-3.7s14.1,1.3,20.2,3.8c6.1,2.5,11.3,6,15.6,10.4s7.7,9.7,10.101,15.8
		C406.3,87.7,407.5,94.3,407.5,101.5z M388.9,101.5c0-5.4-0.7-10.2-2.101-14.4c-1.399-4.3-3.5-7.9-6.1-10.8c-2.7-3-5.9-5.2-9.7-6.8
		s-8.1-2.4-12.9-2.4c-4.8,0-9.1,0.8-12.899,2.4s-7.101,3.8-9.8,6.8c-2.7,3-4.7,6.6-6.2,10.8c-1.4,4.3-2.2,9.1-2.2,14.4
		c0,5.4,0.7,10.2,2.2,14.4c1.399,4.3,3.5,7.899,6.2,10.8c2.699,2.899,5.899,5.2,9.8,6.8c3.8,1.6,8.1,2.4,12.899,2.4
		c4.801,0,9.101-0.801,12.9-2.4s7-3.8,9.7-6.8c2.7-2.9,4.7-6.5,6.1-10.8C388.2,111.7,388.9,106.9,388.9,101.5z"/>
	<path display="inline" fill="#333333" d="M440.6,112.2v38.1H422.4V52.7h29.8c6.7,0,12.399,0.7,17.1,2.1c4.7,1.4,8.601,3.3,11.7,5.8
		c3,2.5,5.3,5.4,6.7,8.9c1.399,3.4,2.1,7.2,2.1,11.4c0,3.3-0.5,6.4-1.5,9.3c-1,2.9-2.399,5.6-4.2,8c-1.8,2.399-4.1,4.5-6.8,6.3
		s-5.7,3.2-9.1,4.3c2.3,1.3,4.3,3.2,5.899,5.601l24.4,36h-16.3c-1.601,0-2.9-0.301-4-0.9c-1.101-0.6-2-1.5-2.8-2.7l-20.5-31.3
		c-0.801-1.2-1.601-2-2.5-2.5c-0.9-0.5-2.301-0.7-4.101-0.7h-7.7V112.2z M440.6,99.1H451.9c3.399,0,6.399-0.4,8.899-1.3
		c2.5-0.9,4.601-2,6.3-3.5c1.601-1.5,2.9-3.3,3.7-5.4s1.2-4.3,1.2-6.8c0-4.9-1.6-8.8-4.9-11.4c-3.3-2.7-8.199-4-15-4h-11.6v32.4
		H440.6z"/>
	<path display="inline" fill="#333333" d="M571.8,52.7v14.4h-43.3v27.1h34.1v14h-34.1v27.6h43.3v14.5h-61.6V52.7H571.8z"/>
	<path display="inline" fill="#61DAFB" d="M626.8,135.7c3.5,0,6.601-0.601,9.4-1.8c2.8-1.2,5.1-2.801,7-4.9
		c1.899-2.1,3.399-4.7,4.399-7.7s1.5-6.399,1.5-10.1V52.7h18.2v58.5c0,5.8-0.899,11.2-2.8,16.1c-1.9,4.9-4.6,9.2-8.1,12.8
		c-3.5,3.601-7.801,6.4-12.801,8.4s-10.6,3-16.899,3s-11.9-1-16.9-3s-9.2-4.8-12.7-8.4c-3.5-3.6-6.199-7.8-8-12.8
		c-1.899-4.899-2.8-10.3-2.8-16.1V52.7h18.2V111.1c0,3.7,0.5,7.101,1.5,10.101s2.5,5.6,4.4,7.7c1.899,2.1,4.199,3.8,7,5
		C620.1,135.1,623.3,135.7,626.8,135.7z"/>
	<path display="inline" fill="#61DAFB" d="M706.2,150.3H688V52.7h18.2V150.3z"/>
</g>
<text transform="matrix(1 0 0 1 228.0498 138.5)" stroke="#000000" stroke-width="7" stroke-miterlimit="10" font-family="'AdobeMyungjoStd-Medium-KSCpc-EUC-H'" font-size="100">Groupchat</text>
</svg>
